# xmcd CD database file
#
# Track frame offsets:
#	150
#	12396
#	24798
#	38587
#	51133
#	63786
#	76838
#	89535
#	101490
#	110977
#	123410
#	133733
#	145837
#	157993
#	169939
#	180105
#	191155
#	201670
#	212913
#	223264
#
# Disc length: 3122 seconds
#
# Revision: 1
# Processed by: cddbd v1.5.2PL0 Copyright (c) Steve Scherf et al.
# Submitted via: CDex 1.70beta2
#
DISCID=1d0c3014
DTITLE=Various Artist - Country and Western - CD1
DYEAR=2005
DGENRE=Country Classics
TTITLE0=Hank Williams - Your Cheatin' Heart
TTITLE1=Leon Payne - I Love You Because
TTITLE2=Red Foley and Ernest Tubb - Goodnight Irene
TTITLE3=Jim Reeves - Bimbo
TTITLE4=Red Foley - Chattanoogie Shoe Shine Boy
TTITLE5=Eddy Arnold - Take Me In Your Arms And Hold Me
TTITLE6=Hank Snow - I'm Movin' On
TTITLE7=Frankie Laine - High Noon
TTITLE8=Tennessee Ernie Ford and Helen O'Connell - Hey Good Lookin'
TTITLE9=Skeets McDonald - Don't Let The Stars Get In Your Eyes
TTITLE10=Les Paul and Mary Ford - Mockin' Bird Hill
TTITLE11=Faron Young - Goin' Steady
TTITLE12=Marty Robbins - I'll Go ALone
TTITLE13=Hank Williams - Take These Chains From My Heart
TTITLE14=Hank Thompson - Rub-A-Dub-Dub
TTITLE15=Johnny Cash and The Gene Lowery Singers - Oh, Lonesome Me
TTITLE16=Slim Whitman - Rose Marie
TTITLE17=Hank Locklin - Let Me Be The One
TTITLE18=Lefty Frizzel - Give Me More More More
TTITLE19=Jim and Jesse - My Little Honey Suckle Rose
EXTD=YEAR: 2005
EXTT0=
EXTT1=
EXTT2=
EXTT3=
EXTT4=
EXTT5=
EXTT6=
EXTT7=
EXTT8=
EXTT9=
EXTT10=
EXTT11=
EXTT12=
EXTT13=
EXTT14=
EXTT15=
EXTT16=
EXTT17=
EXTT18=
EXTT19=
PLAYORDER=
